<mxfile host="localhost" agent="Mozilla/5.0 (X11; Linux x86_64) AppleWebKit/537.36 (KHTML, like Gecko) Chrome/130.0.0.0 Safari/537.36" version="24.7.5">
  <diagram name="Page-1" id="cxbHbJuks0gaINaPjEor">
    <mxGraphModel dx="953" dy="526" grid="1" gridSize="10" guides="1" tooltips="1" connect="1" arrows="1" fold="1" page="1" pageScale="1" pageWidth="850" pageHeight="1100" math="0" shadow="0">
      <root>
        <mxCell id="0" />
        <mxCell id="1" parent="0" />
        <mxCell id="EA5i2GLs4yXYXx-fGXGC-6" style="edgeStyle=orthogonalEdgeStyle;rounded=0;orthogonalLoop=1;jettySize=auto;html=1;" edge="1" parent="1" source="EA5i2GLs4yXYXx-fGXGC-1" target="EA5i2GLs4yXYXx-fGXGC-4">
          <mxGeometry relative="1" as="geometry" />
        </mxCell>
        <mxCell id="EA5i2GLs4yXYXx-fGXGC-8" value="Trigger event when&amp;nbsp;sentitive &lt;br style=&quot;font-size: 14px;&quot;&gt;information found" style="edgeStyle=orthogonalEdgeStyle;rounded=0;orthogonalLoop=1;jettySize=auto;html=1;fontSize=14;labelPosition=center;verticalLabelPosition=top;align=center;verticalAlign=bottom;" edge="1" parent="1" source="EA5i2GLs4yXYXx-fGXGC-1" target="EA5i2GLs4yXYXx-fGXGC-7">
          <mxGeometry relative="1" as="geometry" />
        </mxCell>
        <mxCell id="EA5i2GLs4yXYXx-fGXGC-1" value="Macie" style="sketch=0;points=[[0,0,0],[0.25,0,0],[0.5,0,0],[0.75,0,0],[1,0,0],[0,1,0],[0.25,1,0],[0.5,1,0],[0.75,1,0],[1,1,0],[0,0.25,0],[0,0.5,0],[0,0.75,0],[1,0.25,0],[1,0.5,0],[1,0.75,0]];outlineConnect=0;fontColor=#232F3E;fillColor=#DD344C;strokeColor=#ffffff;dashed=0;verticalLabelPosition=bottom;verticalAlign=top;align=center;html=1;fontSize=12;fontStyle=0;aspect=fixed;shape=mxgraph.aws4.resourceIcon;resIcon=mxgraph.aws4.macie;" vertex="1" parent="1">
          <mxGeometry x="210" y="210" width="78" height="78" as="geometry" />
        </mxCell>
        <mxCell id="EA5i2GLs4yXYXx-fGXGC-3" style="edgeStyle=orthogonalEdgeStyle;rounded=0;orthogonalLoop=1;jettySize=auto;html=1;" edge="1" parent="1" source="EA5i2GLs4yXYXx-fGXGC-2" target="EA5i2GLs4yXYXx-fGXGC-1">
          <mxGeometry relative="1" as="geometry" />
        </mxCell>
        <mxCell id="EA5i2GLs4yXYXx-fGXGC-2" value="Macie Classification Job &lt;br&gt;Creator" style="outlineConnect=0;dashed=0;verticalLabelPosition=bottom;verticalAlign=top;align=center;html=1;shape=mxgraph.aws3.lambda_function;fillColor=#F58534;gradientColor=none;" vertex="1" parent="1">
          <mxGeometry x="30" y="213" width="69" height="72" as="geometry" />
        </mxCell>
        <mxCell id="EA5i2GLs4yXYXx-fGXGC-4" value="S3 bucket" style="sketch=0;points=[[0,0,0],[0.25,0,0],[0.5,0,0],[0.75,0,0],[1,0,0],[0,1,0],[0.25,1,0],[0.5,1,0],[0.75,1,0],[1,1,0],[0,0.25,0],[0,0.5,0],[0,0.75,0],[1,0.25,0],[1,0.5,0],[1,0.75,0]];outlineConnect=0;fontColor=#232F3E;fillColor=#7AA116;strokeColor=#ffffff;dashed=0;verticalLabelPosition=top;verticalAlign=bottom;align=center;html=1;fontSize=12;fontStyle=0;aspect=fixed;shape=mxgraph.aws4.resourceIcon;resIcon=mxgraph.aws4.s3;labelPosition=center;" vertex="1" parent="1">
          <mxGeometry x="210" y="50" width="78" height="78" as="geometry" />
        </mxCell>
        <mxCell id="EA5i2GLs4yXYXx-fGXGC-10" style="edgeStyle=orthogonalEdgeStyle;rounded=0;orthogonalLoop=1;jettySize=auto;html=1;" edge="1" parent="1" source="EA5i2GLs4yXYXx-fGXGC-7" target="EA5i2GLs4yXYXx-fGXGC-9">
          <mxGeometry relative="1" as="geometry" />
        </mxCell>
        <mxCell id="EA5i2GLs4yXYXx-fGXGC-7" value="Simple Notification Service" style="sketch=0;points=[[0,0,0],[0.25,0,0],[0.5,0,0],[0.75,0,0],[1,0,0],[0,1,0],[0.25,1,0],[0.5,1,0],[0.75,1,0],[1,1,0],[0,0.25,0],[0,0.5,0],[0,0.75,0],[1,0.25,0],[1,0.5,0],[1,0.75,0]];outlineConnect=0;fontColor=#232F3E;fillColor=#E7157B;strokeColor=#ffffff;dashed=0;verticalLabelPosition=bottom;verticalAlign=top;align=center;html=1;fontSize=12;fontStyle=0;aspect=fixed;shape=mxgraph.aws4.resourceIcon;resIcon=mxgraph.aws4.sns;" vertex="1" parent="1">
          <mxGeometry x="510" y="210" width="78" height="78" as="geometry" />
        </mxCell>
        <mxCell id="EA5i2GLs4yXYXx-fGXGC-9" value="Email Notification" style="sketch=0;outlineConnect=0;fontColor=#232F3E;gradientColor=none;fillColor=#E7157B;strokeColor=none;dashed=0;verticalLabelPosition=bottom;verticalAlign=top;align=center;html=1;fontSize=12;fontStyle=0;aspect=fixed;pointerEvents=1;shape=mxgraph.aws4.email_notification;" vertex="1" parent="1">
          <mxGeometry x="660" y="210" width="78" height="78" as="geometry" />
        </mxCell>
      </root>
    </mxGraphModel>
  </diagram>
</mxfile>
